{"title":"Gangs Of Wasseypur 2012 BRRip 720p x264 Hindi ESubs - ViZNU [P2P","uid":8247304,"size":1010608208,"categoryP":"video","categoryS":"hd___movies","magnet":"?xt=urn:btih:9c9bf79ad2cb7d88a4c963a8ae2bb06745142f64&amp;dn=Gangs+Of+Wasseypur+2012+BRRip+720p+x264+Hindi+ESubs+-+ViZNU+%5BP2P&amp;tr=udp%3A%2F%2Ftracker.openbittorrent.com%3A80&amp;tr=udp%3A%2F%2Fopen.demonii.com%3A1337&amp;tr=udp%3A%2F%2Ftracker.coppersurfer.tk%3A6969&amp;tr=udp%3A%2F%2Fexodus.desync.com%3A6969","seeders":5,"leechers":5,"uploader":"Vitamin_X","files":-1,"time":1363089286,"description":"_________________________  Visit us at _________________________\n  &lt;a href=&quot;\nhttp://p2pdl.com&quot; rel=&quot;nofollow&quot; target=&quot;_NEW&quot;&gt;\nhttp://p2pdl.com&lt;/a&gt;  ____________________________ &lt;a href=&quot; http://p2pdl.com&quot; rel=&quot;nofollow&quot; target=&quot;_NEW&quot;&gt; http://p2pdl.com&lt;/a&gt;\n\nGangs of Wasseypur 2012 BRRip 720p x264 Hindi ESubs - ViZNU\n\nGenre: Action | Crime | Drama | History | Thriller\nPlot: Shahid Khan's vow to get his father's honor \nback turns him into the most feared man in the \nIndian town of Wasseypu.\ndrug-related murders and is forced to do the gang's bidding.\nDirector: Anurag Kashyap\nStars: Manoj Bajpayee, Richa Chadda, Nawazuddin Siddiqui\nRated: PG 13\n\nInfo: &lt;a href=&quot;\nhttp://www.imdb.com/title/tt1954470/&quot; rel=&quot;nofollow&quot; target=&quot;_NEW&quot;&gt;\nhttp://www.imdb.com/title/tt1954470/&lt;/a&gt;\n\nGeneral\nComplete name                  : Gangs of Wasseypur 2012 BRRip 720p x264 Hindi ESubs - ViZNU.mp4\nFormat                         : MPEG-4\nFormat profile                 : Base Media\nCodec ID                       : isom\nFile size                      : 953 MiB\nDuration                       : 2h 41mn\nOverall bit rate mode          : Variable\nOverall bit rate               : 826 Kbps\n\nVideo\nFormat                         : AVC\nFormat/Info                    : Advanced Video Codec\nFormat profile                 : High &lt;a class=&quot;__cf_email__&quot; href=&quot;/cdn-cgi/l/email-protection&quot; data-cfemail=&quot;734243333f475d42&quot;&gt;[email&amp;#160;protected]&lt;/a&gt;&lt;script cf-hash='f9e31' type=&quot;text/javascript&quot;&gt;\n/* &lt;![CDATA[ */!function(){try{var t=&quot;currentScript&quot;in document?document.currentScript:function(){for(var t=document.getElementsByTagName(&quot;script&quot;),e=t.length;e--;)if(t[e].getAttribute(&quot;cf-hash&quot;))return t[e]}();if(t&amp;&amp;t.previousSibling){var e,r,n,i,c=t.previousSibling,a=c.getAttribute(&quot;data-cfemail&quot;);if(a){for(e=&quot;&quot;,r=parseInt(a.substr(0,2),16),n=2;a.length-n;n+=2)i=parseInt(a.substr(n,2),16)^r,e+=String.fromCharCode(i);e=document.createTextNode(e),c.parentNode.replaceChild(e,c)}}}catch(u){}}();/* ]]&gt; */&lt;/script&gt;\nCodec ID                       : avc1\nCodec ID/Info                  : Advanced Video Coding\nBit rate                       : 783 Kbps\nWidth                          : 1 280 pixels\nHeight                         : 544 pixels\nDisplay aspect ratio           : 2.35:1\nFrame rate mode                : Constant\nFrame rate                     : 24.000 fps\nBit depth                      : 10 bits\nScan type                      : Progressive\nBits/(Pixel*Frame)             : 0.047\nStream size                    : 903 MiB (95%)\nWriting library                : x264 core 129 r2245 bc13772\n\nAudio\nFormat                         : AAC\nFormat/Info                    : Advanced Audio Codec\nDuration                       : 2h 41mn\nBit rate mode                  : Variable\nBit rate                       : 40.0 Kbps\nChannel(s)                     : 2 channels\nChannel positions              : Front: L R\nSampling rate                  : 44.1 KHz / 22.05 KHz\nCompression mode               : Lossy\nStream size                    : 46.2 MiB (5%)\nLanguage                       : Hindi\n\nSubtitle                       : Yes (English)\n\nScreens: &lt;a href=&quot;\nhttp://ultraimg.com/images/wREj.jpg&quot; rel=&quot;nofollow&quot; target=&quot;_NEW&quot;&gt;\nhttp://ultraimg.com/images/wREj.jpg&lt;/a&gt; &lt;a href=&quot;\nhttp://ultraimg.com/images/UH8h.jpg&quot; rel=&quot;nofollow&quot; target=&quot;_NEW&quot;&gt;\nhttp://ultraimg.com/images/UH8h.jpg&lt;/a&gt; &lt;a href=&quot;\nhttp://ultraimg.com/images/rcIl.jpg&quot; rel=&quot;nofollow&quot; target=&quot;_NEW&quot;&gt;\nhttp://ultraimg.com/images/rcIl.jpg&lt;/a&gt; &lt;a href=&quot;\nhttp://ultraimg.com/images/LoYDB.jpg&quot; rel=&quot;nofollow&quot; target=&quot;_NEW&quot;&gt;\nhttp://ultraimg.com/images/LoYDB.jpg&lt;/a&gt;\n\nThumbs: &lt;a href=&quot;\nhttp://ultraimg.com/images/P6vKh.jpg&quot; rel=&quot;nofollow&quot; target=&quot;_NEW&quot;&gt;\nhttp://ultraimg.com/images/P6vKh.jpg&lt;/a&gt;\n\n----------------------------------------------------------------------------------------------------\nEncoded using revolutionary 10bit encoding, which enables us to provide you more crispier \nand sharper images at small sizes, just make sure you follow our instructions without a fault.\nRecommend to you to use latest version of VLC player. Install K-Lite Codec Pack or shark007 codecs\nin case of any kind of problem in playback (For non-VLC Media Player users). Alternatively, install\nCore AVC codecs, the fastest decoder that there is coupled with Community Center Codec Pack and play\non Windows Media Player Classic. Check sample to be sure.\nEnjoy!\n\nGreets to: VYTO, a2zRG, MusiK_KinG, Kuroyukihime, TorDigger, Ash968, StyLishSaLH, Masta and staff members at\nExtraTorrent, TPB, H33T, KAT, 1337x, PublicHD, Ahashare, BTScene,LimeTorrents, TorrentMafia,\nP2PDL, and all others.\n\nEncoder Notes: Encoder Notes: Looking For Early Access To Anything You Can Provide DVDScr, R5, DVDR, BluRay, Direct\nAudio, Music Releases and Seedboxes. We require dedicated servers, so as to do more and fast releases of movies.\nIf You Got anything to offer contact us at &quot;&lt;a class=&quot;__cf_email__&quot; href=&quot;/cdn-cgi/l/email-protection&quot; data-cfemail=&quot;bccccedbfcd4c9cfd492dfd3d1&quot;&gt;[email&amp;#160;protected]&lt;/a&gt;&lt;script cf-hash='f9e31' type=&quot;text/javascript&quot;&gt;\n/* &lt;![CDATA[ */!function(){try{var t=&quot;currentScript&quot;in document?document.currentScript:function(){for(var t=document.getElementsByTagName(&quot;script&quot;),e=t.length;e--;)if(t[e].getAttribute(&quot;cf-hash&quot;))return t[e]}();if(t&amp;&amp;t.previousSibling){var e,r,n,i,c=t.previousSibling,a=c.getAttribute(&quot;data-cfemail&quot;);if(a){for(e=&quot;&quot;,r=parseInt(a.substr(0,2),16),n=2;a.length-n;n+=2)i=parseInt(a.substr(n,2),16)^r,e+=String.fromCharCode(i);e=document.createTextNode(e),c.parentNode.replaceChild(e,c)}}}catch(u){}}();/* ]]&gt; */&lt;/script&gt;&quot;.","torrent":{"xt":"urn:btih:9c9bf79ad2cb7d88a4c963a8ae2bb06745142f64","amp;dn":"Gangs+Of+Wasseypur+2012+BRRip+720p+x264+Hindi+ESubs+-+ViZNU+%5BP2P","amp;tr":["udp%3A%2F%2Ftracker.openbittorrent.com%3A80","udp%3A%2F%2Fopen.demonii.com%3A1337","udp%3A%2F%2Ftracker.coppersurfer.tk%3A6969","udp%3A%2F%2Fexodus.desync.com%3A6969"],"infoHash":"9c9bf79ad2cb7d88a4c963a8ae2bb06745142f64","infoHashBuffer":{"type":"Buffer","data":[156,155,247,154,210,203,125,136,164,201,99,168,174,43,176,103,69,20,47,100]},"announce":[],"urlList":[]}}